<svg width="70" height="70" viewBox="0 0 70 70" fill="none" xmlns="http://www.w3.org/2000/svg">
<g clip-path="url(#clip0_30_6488)">
<mask id="mask0_30_6488" style="mask-type:alpha" maskUnits="userSpaceOnUse" x="0" y="0" width="70" height="70">
<path d="M69.8482 35.0455L35.0059 0.203125L0.188984 35.02L35.0313 69.8623L69.8482 35.0455Z" fill="#C4C4C4"/>
</mask>
<g mask="url(#mask0_30_6488)">
<path d="M72.3326 11.3985C68.1583 13.8438 64.0744 16.418 59.9968 19.0116L54.2935 22.6504L51.3708 24.5279C50.2224 25.2634 49.0095 25.986 47.9127 26.786C47.6869 26.9473 47.7901 27.115 48.0288 26.9796C49.1256 26.386 50.2095 25.6634 51.2741 24.9989L54.5128 22.9988L60.2678 19.4633C64.384 16.9342 68.5261 14.4309 72.61 11.8437C72.7971 11.7211 72.5197 11.2889 72.3326 11.3985Z" fill="#B5815E"/>
<path d="M49.4819 29.9852C50.7465 29.5852 52.0046 29.1529 53.2562 28.7142C54.6111 28.2368 56.0369 27.8303 57.3402 27.2367C57.5466 27.1464 57.4563 26.9012 57.237 26.9658C55.966 27.3077 54.7208 27.8561 53.4885 28.3013C52.1272 28.7981 50.7723 29.3013 49.4303 29.8433C49.269 29.9142 49.3142 30.0368 49.4819 29.9852Z" fill="#B5815E"/>
<path d="M59.1475 26.3314C60.6637 26.0281 62.1347 25.4217 63.5863 24.8991C65.1541 24.3378 66.7412 23.8345 68.2574 23.1571C68.4832 23.0603 68.3284 22.6603 68.0961 22.7248C66.5025 23.1958 64.9606 23.8345 63.4057 24.4216C61.9605 24.9636 60.4508 25.4539 59.1024 26.1959C59.0249 26.2346 59.0637 26.3507 59.1475 26.3314Z" fill="#B5815E"/>
<path d="M78.5822 28.3216C73.8011 29.084 69.0639 29.9918 64.3157 30.9264L57.6888 32.2474L54.2803 32.9347C52.9486 33.2007 51.5495 33.4332 50.2367 33.7753C49.9706 33.8479 50.0114 34.0389 50.2805 34.0049C51.5243 33.8558 52.7897 33.5691 54.0206 33.3369L57.7655 32.6491L64.4144 31.4428C69.1686 30.5855 73.9317 29.7598 78.6739 28.8321C78.8975 28.7952 78.7998 28.2916 78.5822 28.3216Z" fill="#B5815E"/>
<path d="M50.2269 37.2167C51.5263 37.4657 52.8403 37.6766 54.1477 37.8937C55.571 38.1162 57.0152 38.4432 58.4447 38.5369C58.6699 38.554 58.7141 38.3042 58.4907 38.2484C57.2134 37.9423 55.8558 37.8327 54.5533 37.6481C53.1226 37.4445 51.6858 37.2342 50.2465 37.0755C50.0796 37.0547 50.0606 37.1829 50.2269 37.2167Z" fill="#B5815E"/>
<path d="M60.4733 38.6033C61.9439 39.0542 63.525 39.2197 65.0515 39.4472C66.6933 39.6931 68.3321 40.0034 69.9923 40.1339C70.2366 40.1584 70.3022 39.7287 70.0591 39.6784C68.4283 39.3362 66.7699 39.1671 65.1207 38.9402C63.5937 38.7256 62.031 38.4448 60.4935 38.4493C60.4095 38.4517 60.3904 38.58 60.4733 38.6033Z" fill="#B5815E"/>
<path d="M76.8083 49.7984C72.2921 48.0564 67.7307 46.4628 63.1564 44.8951L56.7627 42.7079L53.4658 41.5918C52.1755 41.153 50.8593 40.6498 49.5496 40.2949C49.2851 40.224 49.227 40.4111 49.4722 40.5143C50.6206 41.0046 51.8593 41.3918 53.0465 41.8176L56.6272 43.1015L62.9822 45.3918C67.5307 47.0371 72.0598 48.7145 76.6277 50.2887C76.8406 50.3597 77.0148 49.8758 76.8083 49.7984Z" fill="#B5815E"/>
<path d="M48.0168 43.5174C49.12 44.2593 50.2427 44.969 51.3653 45.6787C52.5782 46.44 53.7911 47.3046 55.0621 47.9562C55.2686 48.0594 55.4041 47.8465 55.217 47.711C54.1589 46.9368 52.9524 46.2981 51.8298 45.6142C50.591 44.8658 49.3459 44.1109 48.0878 43.4077C47.9458 43.3045 47.8749 43.4141 48.0168 43.5174Z" fill="#B5815E"/>
<path d="M56.9014 48.8005C58.082 49.7876 59.4692 50.5682 60.7789 51.3747C62.1918 52.2457 63.5789 53.1812 65.0564 53.949C65.2693 54.0586 65.5016 53.6973 65.3016 53.5619C63.9467 52.607 62.4821 51.8005 61.0498 50.9489C59.7272 50.1553 58.4046 49.2843 56.9788 48.6843C56.9014 48.6456 56.8369 48.7488 56.9014 48.8005Z" fill="#B5815E"/>
<path d="M66.3075 66.6257C62.9978 63.0966 59.5783 59.6772 56.146 56.2706L51.3394 51.5286L48.8619 49.0898C47.8942 48.1349 46.92 47.1091 45.8941 46.2123C45.6877 46.0317 45.5522 46.1801 45.7264 46.3801C46.5458 47.3156 47.4942 48.2124 48.3716 49.1027L51.0426 51.8125L55.7718 56.6319C59.1525 60.0901 62.5074 63.5611 65.9333 66.9741C66.0946 67.1483 66.4624 66.7935 66.3075 66.6257Z" fill="#B5815E"/>
<path d="M43.0894 48.4832C43.7539 49.6252 44.4701 50.7543 45.1733 51.8704C45.9411 53.0769 46.6572 54.3866 47.5218 55.5221C47.6637 55.7027 47.8766 55.5673 47.7669 55.3673C47.154 54.2124 46.3411 53.1156 45.6249 52.0123C44.8378 50.7994 44.0378 49.5865 43.212 48.3994C43.1088 48.2703 43.0055 48.3348 43.0894 48.4832Z" fill="#B5815E"/>
<path d="M48.8166 57.0941C49.4553 58.4942 50.365 59.791 51.2038 61.0942C52.1006 62.4943 52.9522 63.9266 53.9522 65.2621C54.0942 65.4556 54.4619 65.2298 54.3393 65.0169C53.52 63.5653 52.5522 62.2104 51.636 60.8168C50.7844 59.5265 49.9715 58.1716 48.9457 57.0167C48.8876 56.9586 48.7844 57.0232 48.8166 57.0941Z" fill="#B5815E"/>
<path d="M49.5504 77.2389C48.0988 72.6259 46.5116 68.058 44.8922 63.4966L42.6212 57.1352L41.4405 53.8642C40.9825 52.5803 40.5502 51.2318 40.0147 49.9867C39.905 49.735 39.7244 49.7995 39.7953 50.0641C40.1244 51.2706 40.5889 52.4835 41.0018 53.6706L42.2277 57.2707L44.389 63.6644C45.9245 68.2451 47.4407 72.8323 49.0472 77.3937C49.131 77.6196 49.6214 77.4518 49.5504 77.2389Z" fill="#B5815E"/>
<path d="M36.5361 50.8078C36.6393 52.1239 36.7877 53.4465 36.9361 54.7691C37.0974 56.195 37.1748 57.6789 37.4652 59.0789C37.5103 59.3047 37.7619 59.2725 37.7555 59.0466C37.7039 57.7305 37.4523 56.395 37.2845 55.0917C37.0974 53.653 36.9168 52.2207 36.6845 50.7884C36.6458 50.6207 36.5232 50.64 36.5361 50.8078Z" fill="#B5815E"/>
<path d="M37.9433 61.0507C37.9046 62.5991 38.1627 64.1604 38.3498 65.6895C38.5498 67.3347 38.6918 68.9992 39.0079 70.6315C39.0531 70.8702 39.4789 70.8186 39.466 70.5735C39.3692 68.9154 39.0789 67.2702 38.8595 65.6185C38.6595 64.0894 38.5111 62.5088 38.0917 61.0184C38.0659 60.9539 37.9433 60.9603 37.9433 61.0507Z" fill="#B5815E"/>
<path d="M29.8824 79.5147C30.5727 74.7339 31.1082 69.9274 31.6308 65.1208L32.3341 58.4045L32.6889 54.9399C32.8308 53.5851 33.0308 52.185 33.0825 50.8302C33.0889 50.5527 32.9018 50.5334 32.8566 50.7979C32.6308 52.0302 32.5276 53.3206 32.3792 54.5657L31.9276 58.3465L31.1082 65.0499C30.5147 69.85 29.8888 74.6436 29.3662 79.4502C29.3404 79.6695 29.8501 79.7276 29.8824 79.5147Z" fill="#B5815E"/>
<path d="M29.5723 50.0612C29.0948 51.3 28.6561 52.5516 28.2174 53.8032C27.7529 55.1581 27.1787 56.5323 26.8238 57.9195C26.7722 58.1388 27.0045 58.2162 27.1012 58.0033C27.6238 56.7969 27.9722 55.4807 28.3916 54.2355C28.8497 52.8613 29.3013 51.4806 29.7078 50.0935C29.7594 49.9386 29.6368 49.9064 29.5723 50.0612Z" fill="#B5815E"/>
<path d="M26.4064 59.9005C25.7031 61.2747 25.258 62.8038 24.7676 64.2619C24.2386 65.8361 23.6386 67.391 23.2257 69.004C23.1611 69.2362 23.5676 69.3717 23.6644 69.1459C24.2902 67.6039 24.7483 65.9974 25.258 64.4168C25.7354 62.9458 26.2903 61.4618 26.5548 59.9457C26.5677 59.8683 26.4451 59.8231 26.4064 59.9005Z" fill="#B5815E"/>
<path d="M11.122 73.0308C13.8253 69.0243 16.406 64.9339 18.9609 60.8305L22.5222 55.0885L24.3481 52.1271C25.0642 50.9722 25.8513 49.798 26.4965 48.598C26.6255 48.3528 26.4643 48.256 26.303 48.4818C25.561 49.4948 24.9094 50.6109 24.2319 51.6755L22.1738 54.882L18.5157 60.566C15.8898 64.6242 13.2446 68.6759 10.6832 72.7728C10.5607 72.934 11.0058 73.2115 11.122 73.0308Z" fill="#B5815E"/>
<path d="M23.6651 46.372C22.6973 47.2752 21.7553 48.2172 20.8134 49.1591C19.8004 50.1721 18.6907 51.1656 17.7746 52.2624C17.6262 52.4366 17.8133 52.6108 17.9875 52.4625C18.9875 51.6044 19.865 50.5721 20.7811 49.6301C21.7876 48.5849 22.8005 47.5462 23.7683 46.4752C23.8844 46.3462 23.7941 46.2558 23.6651 46.372Z" fill="#B5815E"/>
<path d="M16.539 53.861C15.3067 54.7965 14.2421 55.9771 13.1647 57.0804C12.0034 58.2675 10.784 59.4095 9.7066 60.6805C9.5453 60.8676 9.86144 61.1579 10.0356 60.9966C11.2679 59.8805 12.384 58.6353 13.5325 57.4352C14.6034 56.3255 15.7519 55.2287 16.6422 53.9642C16.6938 53.8997 16.6035 53.8093 16.539 53.861Z" fill="#B5815E"/>
<path d="M-2.92132 59.077C1.25297 56.6317 5.33693 54.0575 9.41445 51.4639L15.1049 47.8251L18.0276 45.9476C19.176 45.2121 20.3889 44.4895 21.4857 43.6895C21.7115 43.5282 21.6083 43.3604 21.3696 43.4959C20.2728 44.0895 19.1889 44.8121 18.1244 45.4766L14.8856 47.4767L9.13057 51.0122C5.01435 53.5413 0.872314 56.0446 -3.21165 58.6318C-3.38585 58.7544 -3.11487 59.1931 -2.92132 59.077Z" fill="#B5815E"/>
<path d="M19.9216 40.4877C18.657 40.8877 17.3989 41.32 16.1473 41.7587C14.7924 42.2361 13.3666 42.6426 12.0633 43.2361C11.8569 43.3265 11.9472 43.5716 12.1665 43.5071C13.4375 43.1652 14.6827 42.6168 15.915 42.1716C17.2763 41.6748 18.6312 41.1716 19.9732 40.6296C20.1345 40.5587 20.0829 40.4425 19.9216 40.4877Z" fill="#B5815E"/>
<path d="M10.2495 44.1341C8.73326 44.4374 7.26226 45.0438 5.81061 45.5664C4.24283 46.1277 2.6557 46.631 1.13954 47.3084C0.913731 47.4052 1.06857 47.8052 1.30083 47.7407C2.89442 47.2697 4.43639 46.631 5.99126 46.0439C7.43646 45.5019 8.94617 45.0116 10.2946 44.2696C10.3785 44.2374 10.3333 44.1277 10.2495 44.1341Z" fill="#B5815E"/>
<path d="M-9.24229 40.7199C-4.41637 40.3328 0.383748 39.8038 5.19032 39.2425L11.9001 38.4424L15.3518 38.0231C16.7002 37.8618 18.1132 37.7392 19.4487 37.5005C19.7197 37.4489 19.6939 37.2553 19.4229 37.2682C18.1712 37.3198 16.8873 37.5069 15.6422 37.6424L11.855 38.036L5.13225 38.7199C0.325681 39.2037 -4.48734 39.6554 -9.28745 40.2102C-9.51327 40.2296 -9.4552 40.7393 -9.24229 40.7199Z" fill="#B5815E"/>
<path d="M18.6384 32.7332C17.3392 32.4833 16.0253 32.2714 14.7181 32.0534C13.2949 31.8298 11.8509 31.5018 10.4216 31.4071C10.1963 31.3897 10.152 31.6395 10.3754 31.6955C11.6524 32.0025 13.01 32.1131 14.3123 32.2986C15.7428 32.5032 17.1795 32.7146 18.6187 32.8744C18.7856 32.8953 18.8047 32.7671 18.6384 32.7332Z" fill="#B5815E"/>
<path d="M8.38991 31.3412C6.91961 30.8893 5.33866 30.7226 3.81238 30.4941C2.17072 30.247 0.532162 29.9355 -1.12798 29.8038C-1.37224 29.7791 -1.43816 30.2087 -1.19514 30.2592C0.435416 30.6026 2.09369 30.7729 3.74273 31.001C5.26964 31.2167 6.8321 31.4987 8.36957 31.4953C8.44752 31.4861 8.47276 31.3646 8.38991 31.3412Z" fill="#B5815E"/>
<path d="M-7.40166 20.6781C-2.88543 22.4201 1.67597 24.0137 6.25027 25.5815L12.6439 27.7686L15.9408 28.8848C17.2311 29.3235 18.5473 29.8267 19.857 30.1816C20.1215 30.2526 20.1796 30.0654 19.9344 29.9622C18.786 29.4719 17.5473 29.0848 16.3602 28.659L12.7794 27.3751L6.42447 25.0847C1.87597 23.4395 -2.65316 21.762 -7.22101 20.1878C-7.43392 20.1168 -7.60812 20.6007 -7.40166 20.6781Z" fill="#B5815E"/>
<path d="M21.3809 26.9671C20.2777 26.2251 19.1551 25.5154 18.0325 24.8057C16.8195 24.0444 15.6066 23.1799 14.3356 22.5283C14.1291 22.425 13.9936 22.6379 14.1807 22.7734C15.2388 23.5476 16.4453 24.1864 17.5679 24.8702C18.8067 25.6186 20.0519 26.3735 21.31 27.0767C21.4583 27.1735 21.5229 27.0574 21.3809 26.9671Z" fill="#B5815E"/>
<path d="M12.5059 21.6787C11.3252 20.6916 9.93805 19.9109 8.62834 19.1045C7.21541 18.2335 5.82828 17.298 4.35082 16.5302C4.13792 16.4205 3.90565 16.7818 4.10566 16.9173C5.46053 17.8722 6.92508 18.6786 8.35737 19.5303C9.67998 20.3238 11.0026 21.1948 12.4285 21.7948C12.4994 21.84 12.5704 21.7303 12.5059 21.6787Z" fill="#B5815E"/>
<path d="M3.10106 3.82505C6.13117 7.05598 9.2617 10.1865 12.4041 13.3052L16.8045 17.6466L19.0727 19.8793C19.9587 20.7535 20.8506 21.6926 21.7898 22.5137C21.9788 22.679 22.1028 22.5432 21.9433 22.3601C21.1932 21.5036 20.3249 20.6826 19.5216 19.8675L17.0763 17.3867L12.7467 12.9744C9.65154 9.80848 6.58008 6.63071 3.44365 3.50609C3.29007 3.35251 2.95339 3.67738 3.10106 3.82505Z" fill="#B5815E"/>
<path d="M26.3095 21.9917C25.6449 20.8497 24.9288 19.7206 24.2255 18.6045C23.4578 17.398 22.7416 16.0883 21.8771 14.9528C21.7352 14.7721 21.5221 14.9076 21.6318 15.1076C22.2447 16.2625 23.0577 17.3593 23.7738 18.4625C24.5609 19.6755 25.3609 20.8884 26.1868 22.0755C26.2771 22.2046 26.3933 22.14 26.3095 21.9917Z" fill="#B5815E"/>
<path d="M20.5883 13.3773C19.9496 11.9772 19.0399 10.6804 18.2012 9.37716C17.3044 7.97712 16.4527 6.54483 15.4527 5.20932C15.3108 5.01577 14.943 5.24158 15.0656 5.45449C15.885 6.90613 16.8528 8.261 17.7689 9.65458C18.6205 10.945 19.4335 12.2998 20.4593 13.4547C20.5109 13.5192 20.6141 13.4547 20.5883 13.3773Z" fill="#B5815E"/>
<path d="M21.3638 -4.03546C22.4645 -0.537693 23.668 2.92583 24.8959 6.38447L26.6178 11.2079L27.5082 13.6931C27.8555 14.6666 28.1833 15.689 28.5893 16.6331C28.6725 16.8239 28.8095 16.775 28.7556 16.5744C28.5061 15.6596 28.1539 14.7399 27.8408 13.8398L26.9114 11.1101L25.2725 6.26217C24.1082 2.78886 22.9586 -0.689344 21.7405 -4.14798C21.6818 -4.31431 21.3149 -4.19201 21.3638 -4.03546Z" fill="#B5815E"/>
<path d="M32.8699 19.6664C32.7666 18.3503 32.6183 17.0277 32.4699 15.705C32.3086 14.2792 32.2311 12.7953 31.9408 11.3953C31.8956 11.1695 31.644 11.2017 31.6505 11.4275C31.7021 12.7437 31.9537 14.0792 32.1215 15.3825C32.3086 16.8212 32.4892 18.2535 32.7215 19.6858C32.7473 19.8535 32.8763 19.8406 32.8699 19.6664Z" fill="#B5815E"/>
<path d="M31.4662 9.42311C31.5049 7.87469 31.2468 6.31336 31.0597 4.78429C30.8597 3.13909 30.7178 1.47453 30.4017 -0.157764C30.3565 -0.396479 29.9307 -0.344865 29.9436 -0.0996979C30.0404 1.5584 30.3307 3.20361 30.5501 4.85526C30.7501 6.38433 30.8985 7.96501 31.3178 9.45537C31.3372 9.52634 31.4662 9.51343 31.4662 9.42311Z" fill="#B5815E"/>
<path d="M39.5244 -9.04001C38.8341 -4.25925 38.2986 0.547303 37.776 5.35387L37.0728 12.0701L36.7179 15.5347C36.576 16.8896 36.376 18.2896 36.3244 19.6445C36.3179 19.9219 36.505 19.9412 36.5502 19.6767C36.776 18.4444 36.8792 17.1541 37.0276 15.9089L37.4792 12.1282L38.2986 5.42484C38.8922 0.624725 39.518 -4.16893 40.0406 -8.97549C40.0664 -9.19485 39.5502 -9.25937 39.5244 -9.04001Z" fill="#B5815E"/>
<path d="M39.8214 20.4195C40.2988 19.1807 40.7376 17.9291 41.1763 16.6774C41.6408 15.3226 42.215 13.9483 42.5699 12.5612C42.6215 12.3418 42.3892 12.2644 42.2924 12.4773C41.7698 13.6838 41.4214 15 41.0021 16.2452C40.544 17.6194 40.0924 19.0001 39.6859 20.3872C39.6408 20.5356 39.7569 20.5743 39.8214 20.4195Z" fill="#B5815E"/>
<path d="M42.9912 10.577C43.6944 9.20273 44.1396 7.67366 44.6299 6.21556C45.159 4.64133 45.759 3.08645 46.1719 1.47351C46.2364 1.24124 45.83 1.10576 45.7332 1.33157C45.1074 2.87354 44.6493 4.48003 44.1396 6.06072C43.6622 7.53172 43.1073 9.01563 42.8428 10.5318C42.8299 10.6092 42.946 10.6479 42.9912 10.577Z" fill="#B5815E"/>
<path d="M58.2788 -2.55201C55.5755 1.45454 52.9948 5.54495 50.4399 9.64827L46.8786 15.3903L45.0527 18.3517C44.3366 19.5066 43.5495 20.6808 42.9043 21.8808C42.7752 22.126 42.9365 22.2228 43.0978 21.997C43.8398 20.984 44.4914 19.8679 45.1689 18.8033L47.227 15.5968L50.8851 9.9128C53.511 5.85464 56.1562 1.80293 58.7175 -2.29394C58.8401 -2.46813 58.4014 -2.73911 58.2788 -2.55201Z" fill="#B5815E"/>
<path d="M47.9956 22.1181C48.9634 21.2149 49.9053 20.2729 50.8473 19.331C51.8538 18.3116 52.9699 17.3245 53.8861 16.2277C54.0345 16.0535 53.8474 15.8793 53.6732 16.0277C52.6731 16.8857 51.7957 17.918 50.8796 18.86C49.8731 19.9052 48.8602 20.9439 47.8924 22.0149C47.7698 22.1504 47.8666 22.2343 47.9956 22.1181Z" fill="#B5815E"/>
<path d="M52.8704 16.6172C54.1027 15.6817 55.1673 14.501 56.2447 13.3978C57.406 12.2107 58.6254 11.0687 59.7029 9.79775C59.8642 9.61065 59.548 9.32032 59.3738 9.48161C58.1415 10.5977 57.0254 11.8429 55.877 13.0429C54.806 14.1526 53.6576 15.2495 52.7672 16.514C52.7156 16.5785 52.8059 16.6688 52.8704 16.6172Z" fill="#B5815E"/>
<path d="M72.4896 59.1703C72.567 59.0928 72.567 58.9767 72.496 58.8928C72.4831 58.8799 71.225 57.4928 71.9024 56.3379C71.9541 56.2605 71.9347 56.1637 71.8702 56.0992C71.8057 56.0347 71.7024 56.0218 71.6315 56.067C70.4831 56.7379 69.0895 55.4863 69.0766 55.4734C68.9927 55.4024 68.8766 55.4024 68.7991 55.4798C68.7217 55.5573 68.7217 55.6734 68.7927 55.7573C68.8056 55.7702 70.0637 57.1573 69.3863 58.3122C69.3347 58.3896 69.354 58.4864 69.4185 58.5509C69.483 58.6154 69.5863 58.6283 69.6572 58.5831C70.8057 57.9122 72.1992 59.1638 72.2121 59.1767C72.2896 59.2412 72.4186 59.2412 72.4896 59.1703ZM69.6701 56.3508C70.1411 56.5896 70.7476 56.7702 71.3605 56.6089C71.1992 57.2218 71.3799 57.8283 71.6186 58.2993C71.1476 58.0606 70.5411 57.8799 69.9282 58.0412C70.0895 57.4283 69.9024 56.8154 69.6701 56.3508Z" fill="#B5815E"/>
<path d="M63.3652 7.12598C64.0168 7.7776 64.0232 8.84215 63.3652 9.50023C64.0168 8.8486 65.0813 8.84215 65.7394 9.50023C65.0878 8.8486 65.0813 7.78406 65.7394 7.12598C65.0813 7.78406 64.0168 7.7776 63.3652 7.12598Z" fill="#B5815E"/>
<path d="M11.0527 -1.57324C11.7043 -0.92161 11.7107 0.142933 11.0527 0.801013C11.7043 0.149385 12.7688 0.142931 13.4269 0.801011C12.7753 0.149383 12.7688 -0.915156 13.4269 -1.57323C12.7753 -0.921608 11.7107 -0.915158 11.0527 -1.57324Z" fill="#B5815E"/>
<path d="M1.76493 16.3206C1.84235 16.2432 1.84235 16.1271 1.77138 16.0432C1.75848 16.0303 0.500387 14.6432 1.17782 13.4883C1.22943 13.4109 1.21007 13.3141 1.14556 13.2496C1.08104 13.1851 0.977814 13.1722 0.906845 13.2173C-0.241566 13.8883 -1.63515 12.6367 -1.64805 12.6238C-1.73193 12.5528 -1.84806 12.5528 -1.92548 12.6302C-2.0029 12.7077 -2.0029 12.8238 -1.93193 12.9077C-1.91903 12.9206 -0.660931 14.3077 -1.33837 15.4626C-1.38998 15.54 -1.37062 15.6368 -1.30611 15.7013C-1.24159 15.7658 -1.13836 15.7787 -1.06739 15.7335C0.0810223 15.0626 1.4746 16.3142 1.4875 16.3271C1.57138 16.3981 1.69396 16.3916 1.76493 16.3206ZM-1.04804 13.5077C-0.577059 13.7464 0.0294067 13.927 0.642323 13.7657C0.48103 14.3787 0.66168 14.9851 0.900396 15.4561C0.429417 15.2174 -0.177046 15.0367 -0.789962 15.198C-0.628669 14.5851 -0.815773 13.9722 -1.04804 13.5077Z" fill="#B5815E"/>
<path d="M5.63621 64.1411C5.83622 64.354 5.84267 64.7347 5.64912 64.9411C5.46847 65.1347 5.06201 65.1282 4.8491 64.9282C4.65554 64.7347 4.66845 64.3347 4.86845 64.1347C5.06201 63.954 5.46201 63.9282 5.63621 64.1411Z" fill="#B5815E"/>
</g>
<path fill-rule="evenodd" clip-rule="evenodd" d="M7.38188 34.9983L5.95334 33.5697L4.52481 34.9983L5.95334 36.4268L7.38188 34.9983ZM5.95334 32.8555L3.81055 34.9983L5.95334 37.1411L8.09614 34.9983L5.95334 32.8555Z" fill="#B5815E"/>
<path fill-rule="evenodd" clip-rule="evenodd" d="M69.2818 34.999L34.997 0.714266L0.712313 34.999L34.997 69.2838L69.2818 34.999ZM34.997 0L-0.00195312 34.999L34.997 69.998L69.9961 34.999L34.997 0Z" fill="#B5815E"/>
<path fill-rule="evenodd" clip-rule="evenodd" d="M36.4269 64.0451L34.9983 62.6166L33.5698 64.0451L34.9983 65.4737L36.4269 64.0451ZM34.9983 61.9023L32.8555 64.0451L34.9983 66.1879L37.1411 64.0451L34.9983 61.9023Z" fill="#B5815E"/>
<path fill-rule="evenodd" clip-rule="evenodd" d="M36.4269 5.95237L34.9983 4.52384L33.5698 5.95237L34.9983 7.3809L36.4269 5.95237ZM34.9983 3.80957L32.8555 5.95237L34.9983 8.09516L37.1411 5.95237L34.9983 3.80957Z" fill="#B5815E"/>
<path fill-rule="evenodd" clip-rule="evenodd" d="M65.4737 34.9983L64.0451 33.5697L62.6166 34.9983L64.0451 36.4268L65.4737 34.9983ZM64.0451 32.8555L61.9023 34.9983L64.0451 37.1411L66.1879 34.9983L64.0451 32.8555Z" fill="#B5815E"/>
<path d="M43.2048 35.6325C43.2048 40.2155 39.4955 43.9206 34.9405 43.9206C30.3707 43.9206 26.6763 40.2006 26.6763 35.6325C26.6763 33.1327 27.7743 30.9008 29.525 29.3682C29.0206 30.261 28.7387 31.3025 28.7387 32.4036C28.7387 35.8409 31.5132 38.6234 34.9405 38.6234C38.3679 38.6234 41.1424 35.8409 41.1424 32.4036C41.1424 31.3025 40.8605 30.2758 40.3561 29.3682C42.1068 30.9008 43.2048 33.1327 43.2048 35.6325ZM29.1244 17.1519C29.7476 17.1519 29.7476 18.1191 29.1244 18.1191C28.4864 18.1191 28.5013 17.1519 29.1244 17.1519ZM21.2756 25.3953C21.3201 25.3804 21.3498 25.3655 21.3943 25.3506C21.9136 25.2167 22.2845 24.9787 22.611 24.6959C22.8929 24.443 22.9819 24.1603 22.9819 23.8627C22.9819 23.7734 22.8929 23.327 23.1451 23.3716C23.3231 23.4163 23.2638 23.8329 23.2786 23.9371C23.427 24.5471 23.9611 25.0233 24.8514 25.2316C24.9404 25.2465 25.1036 25.2316 25.1036 25.3358C25.1036 25.3953 24.9849 25.425 24.8959 25.4399C23.9166 25.6929 23.516 26.3178 23.3528 26.9428C23.3231 27.0469 23.3231 27.166 23.3231 27.2701C23.3231 27.3892 22.9671 27.4189 22.9819 27.2999C23.0412 26.8833 22.9522 26.6601 22.8632 26.3922C22.7148 25.931 22.1955 25.6929 21.4833 25.5441C21.4092 25.5292 21.335 25.5143 21.2756 25.4846C21.2311 25.4697 21.2311 25.4102 21.2756 25.3953ZM36.9139 16.4526C36.9584 16.4377 36.988 16.4228 37.0326 16.4079C37.5519 16.274 37.9228 16.0359 38.2492 15.7532C38.5311 15.5003 38.6201 15.2175 38.6201 14.92C38.6201 14.8307 38.5311 14.3843 38.7833 14.4289C38.9614 14.4736 38.902 14.8902 38.9169 14.9944C39.0652 15.6044 39.5994 16.0806 40.4896 16.2889C40.5786 16.3038 40.7418 16.2889 40.7418 16.393C40.7418 16.4526 40.6231 16.4823 40.5341 16.4972C39.5549 16.7502 39.1543 17.3751 38.991 18.0001C38.9614 18.1042 38.9614 18.2233 38.9614 18.3274C38.9614 18.4465 38.6053 18.4762 38.6201 18.3572C38.6795 17.9405 38.5904 17.7173 38.5014 17.4495C38.3531 16.9882 37.8338 16.7502 37.1216 16.6014C37.0474 16.5865 36.9732 16.5716 36.9139 16.5418C36.8694 16.5418 36.8694 16.4823 36.9139 16.4526ZM44.2434 24.3983C44.2879 24.3835 44.3175 24.3686 44.3621 24.3537C44.8813 24.2198 45.2523 23.9817 45.5787 23.699C45.8606 23.446 45.9496 23.1633 45.9496 22.8657C45.9496 22.7765 45.8606 22.3301 46.1128 22.3747C46.2909 22.4193 46.2315 22.836 46.2464 22.9401C46.3947 23.5502 46.9289 24.0263 47.8191 24.2347C47.9081 24.2495 48.0713 24.2347 48.0713 24.3388C48.0713 24.3983 47.9526 24.4281 47.8636 24.443C46.8843 24.6959 46.4837 25.3209 46.3205 25.9458C46.2909 26.05 46.2909 26.169 46.2909 26.2732C46.2909 26.3922 45.9348 26.422 45.9496 26.303C46.009 25.8863 45.9199 25.6631 45.8309 25.3953C45.6826 24.934 45.1633 24.6959 44.4511 24.5471C44.3769 24.5323 44.3027 24.5174 44.2434 24.4876C44.1988 24.4727 44.184 24.4281 44.2434 24.3983ZM32.9524 26.8237C34.5844 27.2553 34.718 29.636 34.718 29.6658C34.718 29.7997 34.8367 29.9038 34.9702 29.9038C35.1037 29.9038 35.2224 29.7997 35.2224 29.6658C35.2224 29.636 35.3411 27.2553 36.988 26.8237C37.0919 26.794 37.1809 26.6898 37.1809 26.5857C37.1809 26.4666 37.1067 26.3773 36.988 26.3476C35.356 25.9161 35.2224 23.5353 35.2224 23.5056C35.2224 23.3716 35.1037 23.2675 34.9702 23.2675C34.8367 23.2675 34.718 23.3716 34.718 23.5056C34.718 23.5353 34.5993 25.9161 32.9524 26.3476C32.8485 26.3773 32.7595 26.4815 32.7595 26.5857C32.7595 26.6898 32.8485 26.794 32.9524 26.8237ZM34.9702 24.815C35.1779 25.4548 35.5637 26.169 36.261 26.5708C35.5637 26.9725 35.1779 27.6868 34.9702 28.3266C34.7625 27.6868 34.3767 26.9725 33.6794 26.5708C34.3767 26.169 34.7477 25.4548 34.9702 24.815Z" fill="#B5815E"/>
</g>
<defs>
<clipPath id="clip0_30_6488">
<rect width="70" height="70" fill="white"/>
</clipPath>
</defs>
</svg>
